<svg id="Layer_1" data-name="Layer 1" xmlns="http://www.w3.org/2000/svg" viewBox="0 0 524.64 425.57"><defs><style>.cls-1{fill:#16567f;}.cls-2{fill:#f0871b;}</style></defs><title>logo-bao-linh</title><path class="cls-1" d="M249.14,126.86q38,0,75.91.06a73.73,73.73,0,0,1,28.76,5.64,35.66,35.66,0,0,1,3.33,1.86c1.9,1,3.54,2.54,5.81,3.11a8.55,8.55,0,0,1,4.58,3.52c1.55,2.2,4,3.54,5.74,5.57.58.67,1.46,1.25,2,2,6.19,8.42,10.27,17.77,11.26,28.18,1.22,12.87-1.26,24.92-9.69,35.2a53.35,53.35,0,0,1-14.27,12.31c1.88,1.84,4.23,2.85,6.61,4,3.22,1.58,6.58,3.48,8.9,6.27,1.29,1.55,2.94,2.42,4.29,3.77,5.08,5.11,8.75,11.13,10.11,18.15,3.81,19.78.94,38.25-12.08,54.31a53.77,53.77,0,0,1-20.69,15.26,73.81,73.81,0,0,1-22.86,5.59c-4.61.44-9.21.51-13.83.51q-53,0-105.93,0c-.55,0-1.1-.07-1.64-.1,0-1,.13-2,.13-3q0-40.07-.06-80.13,0-48-.08-95.95a5.32,5.32,0,0,1,1.6-4.12,23,23,0,0,1,3-2.5c5.06-3.34,10.11-6.7,14.94-10.35,3-2.25,6.42-3.68,9.32-6C245.81,128.87,247.05,127.18,249.14,126.86Zm4.32,35V295.43c.93.61,1.83.32,2.68.32q30.69,0,61.37,0a66.17,66.17,0,0,0,8.55-.42c7.83-1,14.59-3.88,19.63-10.23a31.84,31.84,0,0,1,3-3.88c1.11-1,1-2.8,1.42-4.21,2.61-9.2,2.55-18.16-3.77-26-3-3.79-6.43-7.3-11.06-9.28a3.82,3.82,0,0,1-2-1.29V213.33c1.55-1.38,3.78-1.47,4.9-2.81,2.2-2.6,5-4.68,6.61-7.81a26.45,26.45,0,0,0,2.91-18.1c-1.17-5.66-3.4-10.75-7.9-14.55-1-.86-1.28-2.24-2.56-2.88-6-3-12-5.4-19-5.34-18.92.19-37.84.07-56.76.06Z" transform="translate(-54.71 -48.69)"/><path class="cls-2" d="M249.51,126.73c-2.09.32-3.33,2-4.8,3.22-2.9,2.36-6.35,3.79-9.32,6-4.83,3.65-9.89,7-14.94,10.35a23,23,0,0,0-3,2.5,5.28,5.28,0,0,0-1.6,4.12q.1,48,.08,95.95,0,40.07.06,80.13c0,1-.09,2-.14,3H190.66c-.07-1.43-.61-2.66.13-3.92,1.51-.74.79-2.12.79-3.17q.07-36.63,0-73.25,0-55.11,0-110.21c0-1.14.53-2.42-.48-3.44a10.56,10.56,0,0,1,4.68-6.89c9.77-6.82,19.59-13.57,29.37-20.37,6.1-4.23,12.19-8.47,18.2-12.81,4.55-3.29,9.24-6.37,13.81-9.63,9.34-6.65,18.8-13.14,28.19-19.72,6.8-4.76,13.53-9.64,20.4-14.28a59.77,59.77,0,0,1,6.63-4.21,12.37,12.37,0,0,1,11.67.11,66.33,66.33,0,0,1,8.82,5.61c4.46,3.35,9.16,6.4,13.76,9.56q12.6,8.69,25.21,17.34c2.88,2,5.93,3.78,8.6,6,3.07,2.57,6.71,4.22,9.83,6.69s6.56,4.54,9.85,6.8,6.76,4.45,10,6.9c7.64,5.83,16,10.7,23.48,16.7,1.6,1.28,3.6,2,5.3,3.22,3.19,2.21,6.05,4.74,6.59,8.94-.62.79-.33,1.7-.33,2.55q0,75.78,0,151.56c0,.84-.3,1.78.48,2.48,0,.37.1.74.14,1.1a1.06,1.06,0,0,0-.58.08l-22.47-.05-2.23-.15c.57-.35,1.62.05,1.68-1.1,1.05-.87.52-2.06.52-3.08q0-69,0-138.07c0-1,.28-2.08-.66-3v8.82c-.93-2.2-.37-4.51-.41-6.76a4.81,4.81,0,0,0-2.2-4.36c-4.78-3.42-9.64-6.73-14.48-10.07-1.73-1.19-4-1.87-4.76-4.13-2.12-.28-3.65-1.67-5.31-2.82-8.7-6.06-17.31-12.25-26.15-18.1-6-4-11.92-8.07-17.86-12.11q-6.61-4.49-13.15-9.16c-6.28-4.5-12.75-8.72-19.31-13.17-3.62,2.5-7.21,4.95-10.77,7.43-4.57,3.18-9.12,6.39-13.68,9.58q-14.37,10.05-28.76,20.08c-4,2.8-8.16,5.49-12.19,8.31C251.74,124.66,250.3,125.33,249.51,126.73Z" transform="translate(-54.71 -48.69)"/><path class="cls-1" d="M493.51,389.11v85.15H474.07L441.9,422.32l-.65.17v51.69H422.52V389.4c.58-.69,1.41-.35,2.14-.35,4.83,0,9.67.05,14.51,0a3.62,3.62,0,0,1,3.7,2c5.12,8.72,10.44,17.33,15.59,26,4,6.75,7.81,13.59,11.76,20.36,1.41,2.42,3.48,4.41,4.86,7.06V389.11Z" transform="translate(-54.71 -48.69)"/><path class="cls-1" d="M107.32,427.46c2.62,1.75,4.91,3.5,7.27,5.14,3.12,2.16,4.77,5.65,5.7,9.37,2,8.1.48,15.39-5,21.78a9.61,9.61,0,0,1-3.93,2.84,6.69,6.69,0,0,0-3.54,2.22,1.81,1.81,0,0,1-1,.69c-4.46,1.05-8.65,2.95-13.44,2.88-12.64-.18-25.28,0-37.92.07a3.12,3.12,0,0,1-.72-.24V387.32a6.31,6.31,0,0,1,3-.29q16.82,0,33.64,0c5.55,0,11.05.69,15.71,3.87,5,3.4,9.24,7.43,9.81,14.15.2,2.33.89,4.58.69,7A17,17,0,0,1,111.67,424C110.3,425.19,109.37,426.91,107.32,427.46Zm-34,29.44c6.6,0,13.06.2,19.5-.07,4-.17,7.13-1.87,8.42-6.3,2.17-7.43-1.85-13.54-9.13-13.46-3.18,0-6.37,0-9.55,0H73.28Zm-.07-35.58c5.64,0,11,.11,16.35,0s9.4-4.35,9.12-9.25c-.3-5.42-3.47-9-9.44-9.14-4.61-.1-9.21,0-13.82,0-.72,0-1.53-.33-2.21.43Z" transform="translate(-54.71 -48.69)"/><path class="cls-1" d="M289,430a50.5,50.5,0,0,1-4.11,22.43,43.79,43.79,0,0,1-7.32,10.87c-1.28,1.46-3,2.06-4.53,3.06-2,1.3-3.52,3.14-5.74,4a49.48,49.48,0,0,1-23.44,3.49A42.87,42.87,0,0,1,229,470.17a33.58,33.58,0,0,1-15.89-16.06,51,51,0,0,1-4.77-15.62c-1.55-11.08-.56-21.8,4.17-32,1-2.14,1.91-4.39,3.89-6,1.07-.86,1.12-2.48,2.16-3.55a35.29,35.29,0,0,1,22.9-10.83,66.74,66.74,0,0,1,11.72-.37c11.12.91,21,4.61,27.41,14.36,5.4,8.2,8.71,17.19,8.47,27.21C289,428.19,289,429.07,289,430Zm-19.9-.07a43.71,43.71,0,0,0,0-4.71c-.69-6.5-1.9-12.83-7.12-17.49-.78-.7-1-1.73-2.18-2.27a27.31,27.31,0,0,0-14.69-2.51c-6.27.7-11.29,3.77-14.08,9.31A41,41,0,0,0,227,430c-.1,5.86,1.4,11.47,3.33,16.92a9.55,9.55,0,0,0,3.45,5c3.67,2.36,7.5,4.27,12.05,4.73a22.09,22.09,0,0,0,19-6.89c.3-.3.09-.66.22-.88a29.32,29.32,0,0,0,2.7-6.38A37,37,0,0,0,269.1,429.88Z" transform="translate(-54.71 -48.69)"/><path class="cls-1" d="M510.61,386.89h18.61v33.72h31.71V387.12h18.42v85.1H560.94V437.51H529.4V472.2H510.61Z" transform="translate(-54.71 -48.69)"/><path class="cls-1" d="M176.38,387.22c9.51,28.42,19,56.69,28.5,85.23h-20.3c-1.93-6-3.85-12-5.77-18H149.54l-5.77,18.08H123.6c9.67-28.52,19.27-56.88,28.89-85.28Zm-22.15,51.65h19.82c-3.26-10.81-6.45-21.42-9.82-32.59Z" transform="translate(-54.71 -48.69)"/><path class="cls-1" d="M344.11,455.7h34.58v16.51H325.92c-.68-2.34-1-73.38-.31-84.58h18.5Z" transform="translate(-54.71 -48.69)"/><path class="cls-1" d="M444.79,295.87a1.08,1.08,0,0,1,.59-.07v36.43H422.61l-11.2,0H389c-3.84,0-7.69-.11-11.53,0-3.63.13-7.25,0-11.23-.09,2.37-1.9,5.07-2.64,7.07-4.53.5-.47,1.22-.6,1.48-1.46s.9-1.34,1.76-.78,1.22.17,1.71-.32c5-5.13,10.54-9.85,13.93-16.41a86.79,86.79,0,0,0,4.31-10.25c.3-.8.58-1.62,1-2.74h22.62l2.23.15c.24.87,1,.73,1.58.73h19.26C443.79,296.57,444.49,296.69,444.79,295.87Z" transform="translate(-54.71 -48.69)"/><path class="cls-1" d="M407.62,474H389.09V389.35h18.52c0,1.21-.08,2.41-.09,3.62q0,32.79,0,65.58C407.53,463.71,407.59,468.87,407.62,474Z" transform="translate(-54.71 -48.69)"/><path class="cls-1" d="M154,366.55c0-1.92,0-3.44,0-5,0-2.32.9-3.6,3.22-3.53,1.55,0,2.71-1,4.14-.83a8.73,8.73,0,0,0,4.14-.5,2.67,2.67,0,0,1,2.79.51,6.48,6.48,0,0,0,3.43,1.62c3.49.78,4.69,3.44,5.3,6.28a9,9,0,0,1-2,8c-4,4.68-9.15,5.91-14.94,5.7-1.14-2.32-.69-4.51-.88-6.89,3-.31,5.91-.5,7.12-3.88a7.64,7.64,0,0,0-1.34-2c-1.21-1-2.22-1.9-4.31-1.08A20.34,20.34,0,0,1,154,366.55Z" transform="translate(-54.71 -48.69)"/><path class="cls-2" d="M297.11,173.91c1.37,2.76,3.06,5.35,4.34,8.29a44.64,44.64,0,0,0,4,6.68c.11.17.47.25.49.41.61,4.59,4.2,7.67,5.95,11.7s4.14,8,6.14,12a34.08,34.08,0,0,1,3.55,18.46c-.67,7.63-4.75,13.22-10.75,17.59a21.25,21.25,0,0,1-12.42,4.49c-10.46.08-18.33-4.62-23.37-13.69-3-5.43-3.5-11.39-2.33-17.51a43.28,43.28,0,0,1,4.9-12.8c3.32-6,6.34-12.23,9.67-18.26,2-3.62,3.69-7.41,6.12-10.81.95-1.34,1.26-3.19,2.16-4.67C295.92,175.12,296.06,174.3,297.11,173.91Z" transform="translate(-54.71 -48.69)"/></svg>